<svg xmlns="http://www.w3.org/2000/svg" viewBox="0 0 108.89 22.42"><defs><style>.cls-1{fill:#f98377;}</style></defs><title>Asset 1</title><g id="Layer_2" data-name="Layer 2"><g id="Layer_1-2" data-name="Layer 1"><path class="cls-1" d="M0,11.28A7.07,7.07,0,0,1,.44,8.7,6,6,0,0,1,1.62,6.77,5.1,5.1,0,0,1,3.29,5.56a4.71,4.71,0,0,1,1.94-.42,4.89,4.89,0,0,1,2,.38,3.86,3.86,0,0,1,1.46,1.1,5.07,5.07,0,0,1,.9,1.73,7.63,7.63,0,0,1,.31,2.26,6.76,6.76,0,0,1-.07,1.08H1.94a4.64,4.64,0,0,0,1.16,3,3.58,3.58,0,0,0,2.72,1.1,4.59,4.59,0,0,0,1.55-.25,6.82,6.82,0,0,0,1.36-.66l.7,1.3a9.94,9.94,0,0,1-1.7.84,5.93,5.93,0,0,1-2.14.36A5.71,5.71,0,0,1,3.4,17a5.2,5.2,0,0,1-1.78-1.2A5.55,5.55,0,0,1,.43,13.85,7.14,7.14,0,0,1,0,11.28Zm8.16-.89A4.32,4.32,0,0,0,7.4,7.64,2.56,2.56,0,0,0,5.28,6.7a2.88,2.88,0,0,0-1.19.25,3.3,3.3,0,0,0-1,.72,3.85,3.85,0,0,0-.76,1.15,5.32,5.32,0,0,0-.4,1.57Z"/><path class="cls-1" d="M11.81,0h2V14.88a1,1,0,0,0,.17.67.5.5,0,0,0,.38.19h.18a1,1,0,0,0,.25,0L15,17.18a1.75,1.75,0,0,1-.46.14,3.9,3.9,0,0,1-.67,0,1.84,1.84,0,0,1-1.61-.67,3.37,3.37,0,0,1-.48-2Z"/><path class="cls-1" d="M16.1,11.28a7.07,7.07,0,0,1,.44-2.58,6,6,0,0,1,1.18-1.93,5.1,5.1,0,0,1,1.67-1.21,4.71,4.71,0,0,1,1.94-.42,4.89,4.89,0,0,1,2,.38,3.86,3.86,0,0,1,1.46,1.1,5.07,5.07,0,0,1,.9,1.73A7.63,7.63,0,0,1,26,10.61a6.76,6.76,0,0,1-.07,1.08H18a4.64,4.64,0,0,0,1.16,3,3.58,3.58,0,0,0,2.72,1.1,4.59,4.59,0,0,0,1.55-.25,6.82,6.82,0,0,0,1.36-.66l.7,1.3a9.94,9.94,0,0,1-1.7.84,5.93,5.93,0,0,1-2.14.36A5.71,5.71,0,0,1,19.5,17a5.2,5.2,0,0,1-1.78-1.2,5.55,5.55,0,0,1-1.19-1.91A7.14,7.14,0,0,1,16.1,11.28Zm8.16-.89a4.32,4.32,0,0,0-.76-2.75,2.56,2.56,0,0,0-2.12-.95,2.88,2.88,0,0,0-1.19.25,3.3,3.3,0,0,0-1,.72,3.85,3.85,0,0,0-.76,1.15,5.32,5.32,0,0,0-.4,1.57Z"/><path class="cls-1" d="M27.91,5.42h1.63l.17,1.68h.07a8.09,8.09,0,0,1,1.67-1.4,3.62,3.62,0,0,1,2-.56,3.34,3.34,0,0,1,2.1.59,3.41,3.41,0,0,1,1.12,1.64,9.83,9.83,0,0,1,1.84-1.62,3.56,3.56,0,0,1,2-.61,3.15,3.15,0,0,1,2.68,1.15A5.57,5.57,0,0,1,44,9.7v7.39H42V10a4.17,4.17,0,0,0-.53-2.39,1.88,1.88,0,0,0-1.63-.73q-1.32,0-2.93,1.8v8.45H35V10a4.17,4.17,0,0,0-.53-2.39,1.9,1.9,0,0,0-1.66-.73q-1.32,0-2.93,1.8v8.45h-2Z"/><path class="cls-1" d="M46,11.28a7.07,7.07,0,0,1,.44-2.58A6,6,0,0,1,47.6,6.77a5.1,5.1,0,0,1,1.67-1.21,4.71,4.71,0,0,1,1.94-.42,4.89,4.89,0,0,1,2,.38,3.86,3.86,0,0,1,1.46,1.1,5.07,5.07,0,0,1,.9,1.73,7.63,7.63,0,0,1,.31,2.26,6.76,6.76,0,0,1-.07,1.08H47.93a4.64,4.64,0,0,0,1.16,3,3.58,3.58,0,0,0,2.72,1.1,4.59,4.59,0,0,0,1.55-.25,6.82,6.82,0,0,0,1.36-.66l.7,1.3a9.94,9.94,0,0,1-1.7.84,5.93,5.93,0,0,1-2.14.36,5.71,5.71,0,0,1-2.2-.42,5.2,5.2,0,0,1-1.78-1.2,5.55,5.55,0,0,1-1.19-1.91A7.14,7.14,0,0,1,46,11.28Zm8.16-.89a4.32,4.32,0,0,0-.76-2.75,2.56,2.56,0,0,0-2.12-.95,2.88,2.88,0,0,0-1.19.25,3.3,3.3,0,0,0-1,.72,3.85,3.85,0,0,0-.76,1.15,5.32,5.32,0,0,0-.4,1.57Z"/><path class="cls-1" d="M57.79,5.42h1.63l.17,1.68h.07a9.52,9.52,0,0,1,1.76-1.4,4,4,0,0,1,2.15-.56,3.14,3.14,0,0,1,2.7,1.15,5.7,5.7,0,0,1,.85,3.41v7.39h-2V10a4.17,4.17,0,0,0-.53-2.39A1.93,1.93,0,0,0,63,6.84a2.87,2.87,0,0,0-1.61.46,10.45,10.45,0,0,0-1.58,1.34v8.45h-2Z"/><path class="cls-1" d="M70.29,7H68.57V5.54l1.82-.12.24-3.26h1.66V5.42h3.14V7H72.29v6.48a3,3,0,0,0,.4,1.67,1.57,1.57,0,0,0,1.4.59,2.62,2.62,0,0,0,.67-.1,5.11,5.11,0,0,0,.65-.22l.38,1.49a10.09,10.09,0,0,1-1,.3,4.89,4.89,0,0,1-1.12.13,3.81,3.81,0,0,1-1.57-.29,2.7,2.7,0,0,1-1-.79,3.08,3.08,0,0,1-.56-1.22,7,7,0,0,1-.17-1.58Z"/><path class="cls-1" d="M76.77,14.28a3.16,3.16,0,0,1,1.82-2.92,16.28,16.28,0,0,1,5.71-1.43,7.62,7.62,0,0,0-.08-1.4,3.79,3.79,0,0,0-.42-1.27,2.47,2.47,0,0,0-.88-.91A2.73,2.73,0,0,0,81.48,6a5,5,0,0,0-1.18.13,5.81,5.81,0,0,0-1,.35,8.17,8.17,0,0,0-.88.46,5.82,5.82,0,0,0-.66.46l-.38-.58q.26-.19.68-.46a6.76,6.76,0,0,1,1-.49,7.73,7.73,0,0,1,1.19-.38,5.72,5.72,0,0,1,1.34-.16,3.64,3.64,0,0,1,1.68.35,2.9,2.9,0,0,1,1.08.95A3.89,3.89,0,0,1,84.86,8,7.84,7.84,0,0,1,85,9.65v7.44h-.62l-.1-1.54h0a12.54,12.54,0,0,1-2,1.27,4.7,4.7,0,0,1-2.21.55,4.4,4.4,0,0,1-1.27-.18,3,3,0,0,1-1.06-.55,2.57,2.57,0,0,1-.72-1A3.4,3.4,0,0,1,76.77,14.28Zm.77,0a2.84,2.84,0,0,0,.2,1.14,1.94,1.94,0,0,0,.56.76,2.31,2.31,0,0,0,.83.42,3.64,3.64,0,0,0,1,.13,4.51,4.51,0,0,0,2-.49,10.85,10.85,0,0,0,2.14-1.48V10.56a25.13,25.13,0,0,0-3.19.54,8.24,8.24,0,0,0-2.09.78,3,3,0,0,0-1.14,1A2.57,2.57,0,0,0,77.54,14.26Z"/><path class="cls-1" d="M89.3,5.62h.62L90,7.78h0A6.13,6.13,0,0,1,91.46,6a2.8,2.8,0,0,1,1.87-.7,3.11,3.11,0,0,1,.55,0,2.07,2.07,0,0,1,.55.19l-.19.67a2.53,2.53,0,0,0-.48-.16,3,3,0,0,0-.53,0,2.71,2.71,0,0,0-1.66.68A5.81,5.81,0,0,0,90,9.12v8H89.3Z"/><path class="cls-1" d="M96.18,21.64a2.21,2.21,0,0,0,.52.06,2.29,2.29,0,0,0,1.84-.92,7.43,7.43,0,0,0,1.24-2.34l.34-1.06L95.35,5.62h.82l2.93,7.54.62,1.58q.34.86.67,1.63h.1q.29-.77.56-1.63t.54-1.58l2.59-7.54H105l-4.61,13.1a9.86,9.86,0,0,1-.54,1.33A5.57,5.57,0,0,1,99,21.24a3.79,3.79,0,0,1-1,.85,2.71,2.71,0,0,1-1.33.32,2.44,2.44,0,0,1-1.1-.24l.19-.67Z"/><path class="cls-1" d="M106.85,16.3a1.06,1.06,0,0,1,.31-.82,1,1,0,0,1,.72-.29,1,1,0,0,1,.71.29,1.08,1.08,0,0,1,.3.82,1,1,0,0,1-.3.79,1,1,0,0,1-.71.29,1,1,0,0,1-1-1.08Z"/></g></g></svg>